<svg id="svg" version="1.1" xmlns="http://www.w3.org/2000/svg" xmlns:xlink="http://www.w3.org/1999/xlink" width="400" height="400" viewBox="0, 0, 400,400"><g id="svgg"><path id="path0" d="M77.320 2.000 C 77.320 3.210,77.395 3.705,77.487 3.100 C 77.578 2.495,77.578 1.505,77.487 0.900 C 77.395 0.295,77.320 0.790,77.320 2.000 M78.032 2.324 C 78.008 4.223,77.876 4.776,77.500 4.559 C 77.225 4.401,77.140 4.426,77.312 4.614 C 78.243 5.638,78.642 5.045,78.497 2.853 C 78.284 -0.369,78.068 -0.615,78.032 2.324 M79.320 2.000 C 79.320 3.210,79.395 3.705,79.487 3.100 C 79.578 2.495,79.578 1.505,79.487 0.900 C 79.395 0.295,79.320 0.790,79.320 2.000 M80.076 2.100 C 80.034 3.365,79.820 4.400,79.600 4.400 C 79.380 4.400,79.200 4.591,79.200 4.824 C 79.200 5.057,79.408 5.119,79.662 4.962 C 79.948 4.785,80.015 4.852,79.838 5.138 C 79.681 5.392,79.293 5.600,78.976 5.600 C 78.659 5.600,78.400 5.951,78.400 6.380 C 78.400 6.809,78.085 7.346,77.700 7.573 C 77.130 7.909,77.101 8.052,77.545 8.344 C 78.006 8.647,78.006 8.732,77.545 8.887 C 77.095 9.038,77.105 9.198,77.600 9.800 C 78.155 10.476,78.139 10.499,77.400 10.105 C 76.686 9.725,76.600 9.804,76.600 10.839 C 76.600 11.478,76.729 12.000,76.887 12.000 C 77.046 12.000,77.077 12.256,76.957 12.569 C 76.837 12.882,76.953 13.538,77.215 14.027 C 77.646 14.833,77.611 14.896,76.845 14.696 C 76.262 14.544,76.000 14.661,76.000 15.075 C 76.000 15.405,76.364 15.770,76.808 15.886 C 77.459 16.057,77.524 16.209,77.141 16.671 C 76.812 17.068,76.693 19.029,76.754 23.036 L 76.844 28.829 54.922 28.786 C 42.865 28.762,32.708 28.856,32.352 28.994 C 31.956 29.148,31.610 29.003,31.464 28.623 C 31.079 27.619,29.628 27.819,29.895 28.840 C 30.109 29.659,30.083 29.664,28.853 29.027 C 28.076 28.625,27.632 28.549,27.696 28.829 C 27.753 29.078,27.260 29.336,26.600 29.401 C 25.940 29.466,25.625 29.432,25.900 29.326 C 26.175 29.220,26.397 28.833,26.394 28.467 C 26.390 28.031,26.286 27.959,26.094 28.260 C 25.932 28.512,25.350 28.782,24.800 28.860 C 24.250 28.937,23.800 29.210,23.800 29.467 C 23.800 30.222,23.393 30.429,21.649 30.561 C 20.582 30.642,20.000 30.520,20.000 30.217 C 20.000 29.910,20.651 29.781,21.880 29.846 C 23.067 29.909,23.553 29.818,23.199 29.599 C 22.890 29.409,22.498 29.339,22.327 29.445 C 22.156 29.551,21.638 29.434,21.175 29.187 C 20.324 28.731,18.993 29.741,19.456 30.491 C 19.558 30.656,19.331 30.672,18.951 30.526 C 18.422 30.323,18.321 30.418,18.518 30.931 C 18.829 31.741,18.639 31.782,17.917 31.060 C 17.464 30.607,17.296 30.607,16.873 31.060 C 16.595 31.357,16.536 31.600,16.741 31.600 C 16.947 31.600,17.214 31.861,17.337 32.180 C 17.493 32.588,17.367 32.686,16.910 32.510 C 16.424 32.324,16.326 32.429,16.518 32.931 C 16.829 33.741,16.639 33.782,15.917 33.060 C 15.464 32.607,15.296 32.607,14.873 33.060 C 14.595 33.357,14.536 33.600,14.741 33.600 C 14.947 33.600,15.214 33.861,15.337 34.180 C 15.493 34.588,15.367 34.686,14.910 34.510 C 14.419 34.322,14.325 34.429,14.526 34.951 C 14.672 35.331,14.656 35.558,14.491 35.456 C 13.741 34.993,12.731 36.324,13.187 37.175 C 13.434 37.638,13.551 38.156,13.445 38.327 C 13.339 38.498,13.409 38.890,13.599 39.199 C 13.818 39.553,13.909 39.067,13.846 37.880 C 13.781 36.651,13.910 36.000,14.217 36.000 C 14.520 36.000,14.642 36.582,14.561 37.649 C 14.429 39.393,14.222 39.800,13.467 39.800 C 13.210 39.800,12.937 40.250,12.860 40.800 C 12.782 41.350,12.512 41.932,12.260 42.094 C 11.959 42.286,12.031 42.390,12.467 42.394 C 12.833 42.397,13.220 42.175,13.326 41.900 C 13.432 41.625,13.466 41.940,13.401 42.600 C 13.336 43.260,13.078 43.753,12.829 43.696 C 12.549 43.632,12.625 44.076,13.027 44.853 C 13.664 46.083,13.659 46.109,12.840 45.895 C 11.819 45.628,11.619 47.079,12.623 47.464 C 13.002 47.610,13.148 47.957,12.996 48.352 C 12.555 49.498,12.786 99.702,13.236 100.243 C 13.544 100.614,13.448 100.685,12.850 100.529 C 12.008 100.309,12.033 101.582,12.892 102.682 C 13.099 102.948,13.136 103.381,12.973 103.644 C 12.766 103.979,12.846 104.018,13.238 103.773 C 13.547 103.580,13.988 103.394,14.218 103.359 C 14.782 103.273,14.862 104.714,14.313 105.054 C 14.061 105.209,13.990 105.140,14.145 104.889 C 14.292 104.651,14.230 104.342,14.007 104.204 C 13.783 104.066,13.600 104.154,13.600 104.400 C 13.600 104.646,13.402 104.725,13.160 104.575 C 12.855 104.387,12.861 104.567,13.180 105.163 C 13.433 105.636,13.839 105.900,14.082 105.749 C 14.341 105.589,14.411 105.659,14.251 105.918 C 14.100 106.161,14.364 106.567,14.837 106.820 C 15.433 107.139,15.613 107.145,15.425 106.840 C 15.275 106.598,15.354 106.400,15.600 106.400 C 15.846 106.400,15.934 106.217,15.796 105.993 C 15.658 105.770,15.349 105.708,15.111 105.855 C 14.860 106.010,14.791 105.939,14.946 105.687 C 15.286 105.138,16.727 105.218,16.641 105.782 C 16.606 106.012,16.420 106.453,16.227 106.762 C 15.982 107.154,16.021 107.234,16.356 107.027 C 16.619 106.864,17.052 106.901,17.318 107.108 C 18.444 107.987,19.691 107.991,19.462 107.115 C 19.299 106.492,19.359 106.399,19.702 106.742 C 20.362 107.402,379.638 107.402,380.298 106.742 C 380.641 106.399,380.701 106.492,380.538 107.115 C 380.309 107.991,381.556 107.987,382.682 107.108 C 382.948 106.901,383.381 106.864,383.644 107.027 C 383.979 107.234,384.018 107.154,383.773 106.762 C 383.580 106.453,383.394 106.012,383.359 105.782 C 383.273 105.218,384.714 105.138,385.054 105.687 C 385.209 105.939,385.140 106.010,384.889 105.855 C 384.651 105.708,384.342 105.770,384.204 105.993 C 384.066 106.217,384.154 106.400,384.400 106.400 C 384.646 106.400,384.725 106.598,384.575 106.840 C 384.387 107.145,384.567 107.139,385.163 106.820 C 385.636 106.567,385.900 106.161,385.749 105.918 C 385.589 105.659,385.659 105.589,385.918 105.749 C 386.161 105.900,386.567 105.636,386.820 105.163 C 387.139 104.567,387.145 104.387,386.840 104.575 C 386.598 104.725,386.400 104.646,386.400 104.400 C 386.400 104.154,386.217 104.066,385.993 104.204 C 385.770 104.342,385.708 104.651,385.855 104.889 C 386.010 105.140,385.939 105.209,385.687 105.054 C 385.138 104.714,385.218 103.273,385.782 103.359 C 386.012 103.394,386.453 103.580,386.762 103.773 C 387.154 104.018,387.234 103.979,387.027 103.644 C 386.864 103.381,386.901 102.948,387.108 102.682 C 387.967 101.582,387.992 100.309,387.150 100.529 C 386.551 100.686,386.456 100.615,386.765 100.242 C 387.034 99.918,387.215 91.228,387.288 75.133 C 387.377 55.527,387.299 50.650,386.905 51.160 C 386.505 51.678,386.492 51.558,386.835 50.528 C 387.131 49.639,387.132 49.021,386.839 48.473 C 386.495 47.830,386.562 47.651,387.210 47.482 C 387.675 47.360,388.000 46.935,388.000 46.447 C 388.000 45.736,387.864 45.672,387.025 45.991 L 386.050 46.361 386.910 44.881 C 387.691 43.538,387.700 43.456,387.009 44.000 C 386.561 44.352,386.370 44.394,386.547 44.100 C 386.726 43.802,386.635 43.598,386.324 43.594 C 385.913 43.589,385.919 43.513,386.351 43.239 C 386.654 43.047,386.779 42.689,386.628 42.445 C 386.476 42.200,386.543 42.000,386.776 42.000 C 387.009 42.000,387.200 41.676,387.200 41.280 C 387.200 40.884,387.396 40.364,387.635 40.125 C 387.948 39.812,387.931 39.604,387.573 39.383 C 387.263 39.192,387.178 39.241,387.347 39.514 C 387.512 39.781,387.302 39.928,386.809 39.891 C 385.900 39.822,385.744 39.386,386.500 39.033 C 386.895 38.849,386.892 38.750,386.483 38.561 C 386.061 38.366,386.061 38.206,386.483 37.684 C 386.874 37.202,386.878 37.120,386.500 37.347 C 385.960 37.671,385.808 37.126,386.300 36.633 C 386.704 36.230,386.721 34.402,386.318 34.651 C 386.143 34.759,386.000 35.087,386.000 35.381 C 386.000 35.674,385.730 36.018,385.400 36.145 C 385.070 36.271,384.800 36.201,384.800 35.987 C 384.800 35.774,384.980 35.600,385.200 35.600 C 385.420 35.600,385.600 35.409,385.600 35.176 C 385.600 34.943,385.392 34.881,385.138 35.038 C 384.852 35.215,384.785 35.148,384.962 34.862 C 385.119 34.608,385.057 34.400,384.824 34.400 C 384.591 34.400,384.395 34.625,384.388 34.900 C 384.371 35.586,383.433 33.948,383.415 33.200 C 383.407 32.870,383.130 32.593,382.800 32.585 C 382.052 32.567,380.414 31.629,381.100 31.612 C 381.375 31.605,381.600 31.409,381.600 31.176 C 381.600 30.943,381.392 30.881,381.138 31.038 C 380.852 31.215,380.785 31.148,380.962 30.862 C 381.119 30.608,381.057 30.400,380.824 30.400 C 380.591 30.400,380.400 30.580,380.400 30.800 C 380.400 31.020,380.226 31.200,380.013 31.200 C 379.799 31.200,379.729 30.930,379.855 30.600 C 379.982 30.270,380.326 30.000,380.619 30.000 C 380.913 30.000,381.241 29.857,381.349 29.682 C 381.598 29.279,379.770 29.296,379.367 29.700 C 378.874 30.192,378.329 30.040,378.653 29.500 C 378.880 29.122,378.798 29.126,378.316 29.517 C 377.794 29.939,377.646 29.939,377.504 29.517 C 377.368 29.112,377.204 29.104,376.749 29.480 C 376.276 29.870,376.156 29.812,376.108 29.171 C 376.072 28.693,376.220 28.489,376.486 28.653 C 376.759 28.822,376.808 28.737,376.617 28.427 C 376.396 28.069,376.188 28.052,375.875 28.365 C 375.287 28.953,374.122 28.915,373.829 28.300 C 373.698 28.025,373.658 28.173,373.740 28.629 C 373.854 29.270,373.696 29.440,373.044 29.381 C 372.580 29.338,372.247 29.094,372.304 28.839 C 372.371 28.542,371.954 28.610,371.147 29.027 C 369.917 29.664,369.891 29.659,370.105 28.840 C 370.372 27.819,368.921 27.619,368.536 28.623 C 368.390 29.003,368.044 29.148,367.648 28.994 C 367.292 28.856,357.135 28.762,345.078 28.786 L 323.156 28.829 323.246 23.036 C 323.307 19.029,323.188 17.068,322.859 16.671 C 322.476 16.209,322.541 16.057,323.192 15.886 C 323.636 15.770,324.000 15.405,324.000 15.075 C 324.000 14.661,323.738 14.544,323.155 14.696 C 322.389 14.896,322.354 14.833,322.785 14.027 C 323.047 13.538,323.163 12.882,323.043 12.569 C 322.923 12.256,322.954 12.000,323.113 12.000 C 323.271 12.000,323.400 11.478,323.400 10.839 C 323.400 9.804,323.314 9.725,322.600 10.105 C 321.872 10.493,321.852 10.468,322.374 9.835 C 322.839 9.271,322.850 9.078,322.429 8.818 C 322.008 8.557,322.012 8.454,322.455 8.272 C 322.882 8.095,322.849 7.951,322.300 7.603 C 321.915 7.360,321.600 6.809,321.600 6.380 C 321.600 5.951,321.341 5.600,321.024 5.600 C 320.707 5.600,320.319 5.392,320.162 5.138 C 319.985 4.852,320.052 4.785,320.338 4.962 C 320.592 5.119,320.800 5.057,320.800 4.824 C 320.800 4.591,320.629 4.400,320.420 4.400 C 320.211 4.400,319.975 3.365,319.896 2.100 L 319.751 -0.200 319.676 2.057 C 319.617 3.794,319.439 4.376,318.900 4.581 C 318.339 4.795,318.299 4.748,318.700 4.344 C 319.280 3.759,319.385 0.000,318.821 0.000 C 318.612 0.000,318.387 0.945,318.321 2.100 C 318.164 4.819,317.436 4.819,317.279 2.100 L 317.158 0.000 296.000 0.000 L 274.842 0.000 274.721 2.005 C 274.564 4.602,273.836 4.602,273.679 2.005 C 273.613 0.902,273.388 0.000,273.179 0.000 C 272.615 0.000,272.720 3.759,273.300 4.344 C 273.701 4.747,273.665 4.796,273.119 4.588 C 272.615 4.396,272.401 3.741,272.295 2.064 L 272.151 -0.200 272.076 2.100 C 272.034 3.365,271.820 4.400,271.600 4.400 C 271.380 4.400,271.200 4.591,271.200 4.824 C 271.200 5.057,271.408 5.119,271.662 4.962 C 271.948 4.785,272.015 4.852,271.838 5.138 C 271.681 5.392,271.293 5.600,270.976 5.600 C 270.659 5.600,270.400 5.951,270.400 6.380 C 270.400 6.809,270.085 7.346,269.700 7.573 C 269.130 7.909,269.101 8.052,269.545 8.344 C 270.006 8.647,270.006 8.732,269.545 8.887 C 269.095 9.038,269.105 9.198,269.600 9.800 C 270.155 10.476,270.139 10.499,269.400 10.105 C 268.686 9.725,268.600 9.804,268.600 10.839 C 268.600 11.478,268.729 12.000,268.887 12.000 C 269.046 12.000,269.077 12.256,268.957 12.569 C 268.837 12.882,268.953 13.538,269.215 14.027 C 269.646 14.833,269.611 14.896,268.845 14.696 C 268.262 14.544,268.000 14.661,268.000 15.075 C 268.000 15.405,268.364 15.770,268.808 15.886 C 269.459 16.057,269.524 16.209,269.141 16.671 C 268.812 17.068,268.693 19.026,268.754 23.022 L 268.843 28.800 200.000 28.800 L 131.157 28.800 131.246 23.022 C 131.307 19.026,131.188 17.068,130.859 16.671 C 130.476 16.209,130.541 16.057,131.192 15.886 C 131.636 15.770,132.000 15.405,132.000 15.075 C 132.000 14.661,131.738 14.544,131.155 14.696 C 130.389 14.896,130.354 14.833,130.785 14.027 C 131.047 13.538,131.163 12.882,131.043 12.569 C 130.923 12.256,130.954 12.000,131.113 12.000 C 131.271 12.000,131.400 11.478,131.400 10.839 C 131.400 9.804,131.314 9.725,130.600 10.105 C 129.872 10.493,129.852 10.468,130.374 9.835 C 130.839 9.271,130.850 9.078,130.429 8.818 C 130.008 8.557,130.012 8.454,130.455 8.272 C 130.882 8.095,130.849 7.951,130.300 7.603 C 129.915 7.360,129.600 6.809,129.600 6.380 C 129.600 5.951,129.341 5.600,129.024 5.600 C 128.707 5.600,128.319 5.392,128.162 5.138 C 127.985 4.852,128.052 4.785,128.338 4.962 C 128.592 5.119,128.800 5.057,128.800 4.824 C 128.800 4.591,128.629 4.400,128.420 4.400 C 128.211 4.400,127.975 3.365,127.896 2.100 L 127.751 -0.200 127.676 2.057 C 127.617 3.794,127.439 4.376,126.900 4.581 C 126.339 4.795,126.299 4.748,126.700 4.344 C 127.280 3.759,127.385 0.000,126.821 0.000 C 126.612 0.000,126.387 0.902,126.321 2.005 C 126.164 4.602,125.436 4.602,125.279 2.005 L 125.158 0.000 104.000 0.000 L 82.842 0.000 82.721 2.100 C 82.569 4.744,81.840 4.678,81.679 2.005 C 81.613 0.902,81.388 0.000,81.179 0.000 C 80.615 -0.000,80.720 3.759,81.300 4.344 C 81.701 4.747,81.665 4.796,81.119 4.588 C 80.615 4.396,80.401 3.741,80.295 2.064 L 80.151 -0.200 80.076 2.100 M82.120 2.000 C 82.120 3.210,82.195 3.705,82.287 3.100 C 82.378 2.495,82.378 1.505,82.287 0.900 C 82.195 0.295,82.120 0.790,82.120 2.000 M125.720 2.000 C 125.720 3.210,125.795 3.705,125.887 3.100 C 125.978 2.495,125.978 1.505,125.887 0.900 C 125.795 0.295,125.720 0.790,125.720 2.000 M128.520 2.000 C 128.520 3.210,128.595 3.705,128.687 3.100 C 128.778 2.495,128.778 1.505,128.687 0.900 C 128.595 0.295,128.520 0.790,128.520 2.000 M129.646 1.800 C 129.587 2.900,129.481 4.096,129.411 4.459 C 129.279 5.136,130.120 5.238,130.688 4.614 C 130.860 4.426,130.784 4.396,130.519 4.547 C 130.173 4.746,129.999 4.124,129.896 2.312 C 129.759 -0.118,129.751 -0.135,129.646 1.800 M130.520 2.000 C 130.520 3.210,130.595 3.705,130.687 3.100 C 130.778 2.495,130.778 1.505,130.687 0.900 C 130.595 0.295,130.520 0.790,130.520 2.000 M269.320 2.000 C 269.320 3.210,269.395 3.705,269.487 3.100 C 269.578 2.495,269.578 1.505,269.487 0.900 C 269.395 0.295,269.320 0.790,269.320 2.000 M270.032 2.324 C 270.008 4.223,269.876 4.776,269.500 4.559 C 269.225 4.401,269.140 4.426,269.312 4.614 C 270.243 5.638,270.642 5.045,270.497 2.853 C 270.284 -0.369,270.068 -0.615,270.032 2.324 M271.320 2.000 C 271.320 3.210,271.395 3.705,271.487 3.100 C 271.578 2.495,271.578 1.505,271.487 0.900 C 271.395 0.295,271.320 0.790,271.320 2.000 M274.120 2.000 C 274.120 3.210,274.195 3.705,274.287 3.100 C 274.378 2.495,274.378 1.505,274.287 0.900 C 274.195 0.295,274.120 0.790,274.120 2.000 M317.720 2.000 C 317.720 3.210,317.795 3.705,317.887 3.100 C 317.978 2.495,317.978 1.505,317.887 0.900 C 317.795 0.295,317.720 0.790,317.720 2.000 M320.520 2.000 C 320.520 3.210,320.595 3.705,320.687 3.100 C 320.778 2.495,320.778 1.505,320.687 0.900 C 320.595 0.295,320.520 0.790,320.520 2.000 M321.646 1.800 C 321.587 2.900,321.481 4.096,321.411 4.459 C 321.279 5.136,322.120 5.238,322.688 4.614 C 322.860 4.426,322.784 4.396,322.519 4.547 C 322.173 4.746,321.999 4.124,321.896 2.312 C 321.759 -0.118,321.751 -0.135,321.646 1.800 M322.520 2.000 C 322.520 3.210,322.595 3.705,322.687 3.100 C 322.778 2.495,322.778 1.505,322.687 0.900 C 322.595 0.295,322.520 0.790,322.520 2.000 M108.800 40.000 L 108.800 60.800 104.000 60.800 L 99.200 60.800 99.200 40.000 L 99.200 19.200 104.000 19.200 L 108.800 19.200 108.800 40.000 M300.800 40.000 L 300.800 60.800 296.000 60.800 L 291.200 60.800 291.200 40.000 L 291.200 19.200 296.000 19.200 L 300.800 19.200 300.800 40.000 M15.784 30.027 C 15.639 30.261,15.616 30.549,15.733 30.667 C 16.020 30.953,16.800 30.448,16.800 29.976 C 16.800 29.465,16.109 29.499,15.784 30.027 M381.891 30.942 C 381.995 31.485,382.434 32.020,382.869 32.134 C 383.304 32.248,383.752 32.696,383.866 33.131 C 384.210 34.447,386.073 34.554,385.922 33.249 C 385.837 32.523,385.531 32.162,384.925 32.075 C 384.379 31.998,384.002 31.621,383.925 31.075 C 383.838 30.469,383.477 30.163,382.751 30.078 C 381.830 29.972,381.726 30.077,381.891 30.942 M383.600 30.733 C 383.600 31.254,383.124 31.601,382.738 31.361 C 382.324 31.106,382.681 30.400,383.224 30.400 C 383.431 30.400,383.600 30.550,383.600 30.733 M384.588 30.820 C 384.207 31.435,384.728 31.832,385.242 31.318 C 385.529 31.031,385.536 30.807,385.262 30.639 C 385.039 30.500,384.735 30.582,384.588 30.820 M13.784 32.027 C 13.639 32.261,13.616 32.549,13.733 32.667 C 14.020 32.953,14.800 32.448,14.800 31.976 C 14.800 31.465,14.109 31.499,13.784 32.027 M385.600 32.733 C 385.600 33.254,385.124 33.601,384.738 33.361 C 384.324 33.106,384.681 32.400,385.224 32.400 C 385.431 32.400,385.600 32.550,385.600 32.733 M18.600 116.289 C 18.160 116.398,17.583 116.662,17.318 116.877 C 17.052 117.093,16.619 117.136,16.356 116.973 C 16.021 116.766,15.982 116.846,16.227 117.238 C 16.420 117.547,16.606 117.988,16.641 118.218 C 16.727 118.782,15.286 118.862,14.946 118.313 C 14.791 118.061,14.860 117.990,15.111 118.145 C 15.349 118.292,15.658 118.230,15.796 118.007 C 15.934 117.783,15.846 117.600,15.600 117.600 C 15.354 117.600,15.275 117.402,15.425 117.160 C 15.613 116.855,15.433 116.861,14.837 117.180 C 14.364 117.433,14.100 117.839,14.251 118.082 C 14.411 118.341,14.341 118.411,14.082 118.251 C 13.839 118.100,13.433 118.364,13.180 118.837 C 12.861 119.433,12.855 119.613,13.160 119.425 C 13.402 119.275,13.600 119.354,13.600 119.600 C 13.600 119.846,13.783 119.934,14.007 119.796 C 14.230 119.658,14.292 119.349,14.145 119.111 C 13.990 118.860,14.061 118.791,14.313 118.946 C 14.862 119.286,14.782 120.727,14.218 120.641 C 13.988 120.606,13.547 120.420,13.238 120.227 C 12.846 119.982,12.766 120.021,12.973 120.356 C 13.136 120.619,13.099 121.052,12.892 121.318 C 12.033 122.418,12.008 123.691,12.850 123.471 C 13.458 123.312,13.546 123.383,13.225 123.769 C 12.934 124.120,12.774 161.333,12.703 244.878 C 12.621 340.706,12.702 365.348,13.095 364.840 C 13.495 364.322,13.508 364.442,13.165 365.472 C 12.869 366.361,12.868 366.979,13.161 367.527 C 13.505 368.170,13.438 368.349,12.790 368.518 C 12.325 368.640,12.000 369.065,12.000 369.553 C 12.000 370.264,12.136 370.328,12.975 370.009 L 13.950 369.639 13.090 371.119 C 12.309 372.462,12.300 372.544,12.991 372.000 C 13.439 371.648,13.630 371.606,13.453 371.900 C 13.274 372.198,13.365 372.402,13.676 372.406 C 14.087 372.411,14.081 372.487,13.649 372.761 C 13.346 372.953,13.221 373.311,13.372 373.555 C 13.524 373.800,13.457 374.000,13.224 374.000 C 12.991 374.000,12.800 374.324,12.800 374.720 C 12.800 375.116,12.604 375.636,12.365 375.875 C 12.052 376.188,12.069 376.396,12.427 376.617 C 12.737 376.808,12.822 376.759,12.653 376.486 C 12.488 376.219,12.698 376.072,13.191 376.109 C 14.100 376.178,14.256 376.614,13.500 376.967 C 13.105 377.151,13.108 377.250,13.517 377.439 C 13.939 377.634,13.939 377.794,13.517 378.316 C 13.126 378.798,13.122 378.880,13.500 378.653 C 14.040 378.329,14.192 378.874,13.700 379.367 C 13.296 379.770,13.279 381.598,13.682 381.349 C 13.857 381.241,14.000 380.913,14.000 380.619 C 14.000 380.326,14.270 379.982,14.600 379.855 C 14.930 379.729,15.200 379.799,15.200 380.013 C 15.200 380.226,15.020 380.400,14.800 380.400 C 14.580 380.400,14.400 380.591,14.400 380.824 C 14.400 381.057,14.608 381.119,14.862 380.962 C 15.148 380.785,15.215 380.852,15.038 381.138 C 14.881 381.392,14.943 381.600,15.176 381.600 C 15.409 381.600,15.605 381.375,15.612 381.100 C 15.629 380.414,16.567 382.052,16.585 382.800 C 16.593 383.130,16.870 383.407,17.200 383.415 C 17.948 383.433,19.586 384.371,18.900 384.388 C 18.625 384.395,18.400 384.591,18.400 384.824 C 18.400 385.057,18.608 385.119,18.862 384.962 C 19.148 384.785,19.215 384.852,19.038 385.138 C 18.881 385.392,18.943 385.600,19.176 385.600 C 19.409 385.600,19.600 385.420,19.600 385.200 C 19.600 384.980,19.774 384.800,19.987 384.800 C 20.201 384.800,20.271 385.070,20.145 385.400 C 20.018 385.730,19.674 386.000,19.381 386.000 C 19.087 386.000,18.759 386.143,18.651 386.318 C 18.402 386.721,20.230 386.704,20.633 386.300 C 21.126 385.808,21.671 385.960,21.347 386.500 C 21.120 386.878,21.202 386.874,21.684 386.483 C 22.206 386.061,22.366 386.061,22.561 386.483 C 22.750 386.892,22.849 386.895,23.033 386.500 C 23.386 385.744,23.822 385.900,23.891 386.809 C 23.928 387.302,23.781 387.512,23.514 387.347 C 23.241 387.178,23.192 387.263,23.383 387.573 C 23.604 387.931,23.812 387.948,24.125 387.635 C 24.364 387.396,24.884 387.200,25.280 387.200 C 25.676 387.200,26.000 387.009,26.000 386.776 C 26.000 386.543,26.200 386.476,26.445 386.628 C 26.689 386.779,27.047 386.654,27.239 386.351 C 27.513 385.919,27.589 385.913,27.594 386.324 C 27.598 386.635,27.802 386.726,28.100 386.547 C 28.394 386.370,28.352 386.561,28.000 387.009 C 27.456 387.700,27.538 387.691,28.881 386.910 L 30.361 386.050 29.991 387.025 C 29.672 387.864,29.736 388.000,30.447 388.000 C 30.935 388.000,31.360 387.675,31.482 387.210 C 31.651 386.562,31.830 386.495,32.473 386.839 C 33.021 387.132,33.639 387.131,34.528 386.835 C 35.558 386.492,35.678 386.505,35.160 386.905 C 34.652 387.298,68.519 387.400,200.000 387.400 C 331.481 387.400,365.348 387.298,364.840 386.905 C 364.322 386.505,364.442 386.492,365.472 386.835 C 366.361 387.131,366.979 387.132,367.527 386.839 C 368.170 386.495,368.349 386.562,368.518 387.210 C 368.640 387.675,369.065 388.000,369.553 388.000 C 370.264 388.000,370.328 387.864,370.009 387.025 L 369.639 386.050 371.119 386.910 C 372.093 387.476,372.432 387.561,372.110 387.156 C 371.439 386.316,373.302 386.393,375.078 387.279 C 376.431 387.954,377.067 387.804,376.377 386.972 C 376.089 386.625,376.090 386.392,376.381 386.212 C 376.611 386.069,376.800 386.165,376.800 386.425 C 376.800 386.786,376.933 386.787,377.361 386.432 C 377.792 386.075,377.978 386.087,378.161 386.483 C 378.350 386.892,378.449 386.895,378.633 386.500 C 378.762 386.225,379.042 386.000,379.257 386.000 C 379.472 386.000,379.548 386.161,379.426 386.358 C 379.304 386.555,379.485 386.824,379.828 386.956 C 380.312 387.141,380.402 386.994,380.230 386.297 C 380.107 385.804,380.111 385.625,380.237 385.900 C 380.363 386.175,380.743 386.400,381.080 386.400 C 381.497 386.400,381.626 386.657,381.484 387.201 C 381.369 387.641,381.438 387.900,381.637 387.777 C 381.837 387.654,382.000 387.203,382.000 386.776 C 382.000 386.349,382.201 386.000,382.447 386.000 C 383.029 386.000,386.000 383.029,386.000 382.447 C 386.000 382.201,386.349 382.000,386.776 382.000 C 387.203 382.000,387.654 381.837,387.777 381.637 C 387.900 381.438,387.641 381.369,387.201 381.484 C 386.657 381.626,386.400 381.497,386.400 381.080 C 386.400 380.743,386.175 380.363,385.900 380.237 C 385.625 380.111,385.850 380.094,386.400 380.200 C 386.950 380.306,387.174 380.289,386.898 380.162 C 386.621 380.035,386.514 379.739,386.659 379.504 C 386.816 379.251,386.735 379.193,386.462 379.362 C 386.208 379.519,386.000 379.467,386.000 379.247 C 386.000 379.027,386.199 378.724,386.443 378.574 C 386.758 378.379,386.742 378.212,386.390 377.994 C 386.037 377.776,386.188 377.495,386.915 377.019 C 387.862 376.398,387.350 373.613,386.397 374.202 C 386.273 374.279,386.171 374.008,386.171 373.600 C 386.171 373.192,386.343 372.965,386.554 373.095 C 386.776 373.232,386.822 373.034,386.663 372.621 C 386.461 372.093,386.546 371.971,386.996 372.143 C 387.534 372.350,387.535 372.219,387.001 370.941 C 386.425 369.563,386.433 369.515,387.201 369.716 C 387.737 369.856,388.000 369.728,388.000 369.325 C 388.000 368.995,387.644 368.632,387.210 368.518 C 386.562 368.349,386.495 368.170,386.839 367.527 C 387.132 366.979,387.131 366.361,386.835 365.472 C 386.492 364.442,386.505 364.322,386.905 364.840 C 387.298 365.348,387.379 340.706,387.297 244.878 C 387.226 161.333,387.066 124.120,386.775 123.769 C 386.454 123.383,386.542 123.312,387.150 123.471 C 387.992 123.691,387.967 122.418,387.108 121.318 C 386.901 121.052,386.864 120.619,387.027 120.356 C 387.234 120.021,387.154 119.982,386.762 120.227 C 386.453 120.420,386.012 120.606,385.782 120.641 C 385.218 120.727,385.138 119.286,385.687 118.946 C 385.939 118.791,386.010 118.860,385.855 119.111 C 385.708 119.349,385.770 119.658,385.993 119.796 C 386.217 119.934,386.400 119.846,386.400 119.600 C 386.400 119.354,386.598 119.275,386.840 119.425 C 387.145 119.613,387.139 119.433,386.820 118.837 C 386.567 118.364,386.161 118.100,385.918 118.251 C 385.659 118.411,385.589 118.341,385.749 118.082 C 385.900 117.839,385.636 117.433,385.163 117.180 C 384.567 116.861,384.387 116.855,384.575 117.160 C 384.725 117.402,384.646 117.600,384.400 117.600 C 384.154 117.600,384.066 117.783,384.204 118.007 C 384.342 118.230,384.651 118.292,384.889 118.145 C 385.140 117.990,385.209 118.061,385.054 118.313 C 384.714 118.862,383.273 118.782,383.359 118.218 C 383.394 117.988,383.580 117.547,383.773 117.238 C 384.018 116.846,383.979 116.766,383.644 116.973 C 383.381 117.136,382.948 117.099,382.682 116.892 C 381.556 116.013,380.309 116.009,380.538 116.885 C 380.701 117.508,380.641 117.601,380.298 117.258 C 379.638 116.598,20.362 116.598,19.702 117.258 C 19.359 117.601,19.301 117.501,19.469 116.858 C 19.592 116.386,19.627 116.021,19.547 116.046 C 19.466 116.072,19.040 116.181,18.600 116.289 M132.800 188.000 L 132.800 204.800 116.000 204.800 L 99.200 204.800 99.200 188.000 L 99.200 171.200 116.000 171.200 L 132.800 171.200 132.800 188.000 M188.800 188.000 L 188.800 204.800 172.000 204.800 L 155.200 204.800 155.200 188.000 L 155.200 171.200 172.000 171.200 L 188.800 171.200 188.800 188.000 M244.800 188.000 L 244.800 204.800 228.000 204.800 L 211.200 204.800 211.200 188.000 L 211.200 171.200 228.000 171.200 L 244.800 171.200 244.800 188.000 M300.800 188.000 L 300.800 204.800 284.000 204.800 L 267.200 204.800 267.200 188.000 L 267.200 171.200 284.000 171.200 L 300.800 171.200 300.800 188.000 M132.800 244.000 L 132.800 260.800 116.000 260.800 L 99.200 260.800 99.200 244.000 L 99.200 227.200 116.000 227.200 L 132.800 227.200 132.800 244.000 M188.800 244.000 L 188.800 260.800 172.000 260.800 L 155.200 260.800 155.200 244.000 L 155.200 227.200 172.000 227.200 L 188.800 227.200 188.800 244.000 M244.800 244.000 L 244.800 260.800 228.000 260.800 L 211.200 260.800 211.200 244.000 L 211.200 227.200 228.000 227.200 L 244.800 227.200 244.800 244.000 M300.800 244.000 L 300.800 260.800 284.000 260.800 L 267.200 260.800 267.200 244.000 L 267.200 227.200 284.000 227.200 L 300.800 227.200 300.800 244.000 M132.800 300.000 L 132.800 316.800 116.000 316.800 L 99.200 316.800 99.200 300.000 L 99.200 283.200 116.000 283.200 L 132.800 283.200 132.800 300.000 M188.800 300.000 L 188.800 316.800 172.000 316.800 L 155.200 316.800 155.200 300.000 L 155.200 283.200 172.000 283.200 L 188.800 283.200 188.800 300.000 M244.800 300.000 L 244.800 316.800 228.000 316.800 L 211.200 316.800 211.200 300.000 L 211.200 283.200 228.000 283.200 L 244.800 283.200 244.800 300.000 M300.800 300.000 L 300.800 316.800 284.000 316.800 L 267.200 316.800 267.200 300.000 L 267.200 283.200 284.000 283.200 L 300.800 283.200 300.800 300.000 M385.500 381.433 C 385.119 381.815,384.355 381.197,384.639 380.738 C 384.807 380.464,385.031 380.471,385.318 380.758 C 385.554 380.994,385.636 381.298,385.500 381.433 M14.078 382.751 C 14.163 383.477,14.469 383.838,15.075 383.925 C 15.621 384.002,15.998 384.379,16.075 384.925 C 16.162 385.531,16.523 385.837,17.249 385.922 C 18.554 386.073,18.447 384.210,17.131 383.866 C 16.696 383.752,16.248 383.304,16.134 382.869 C 15.790 381.553,13.927 381.446,14.078 382.751 M385.151 382.361 C 385.759 382.746,385.429 383.604,384.676 383.594 C 384.390 383.590,384.439 383.433,384.800 383.200 C 385.340 382.851,385.090 382.628,384.300 382.753 C 384.135 382.779,384.000 382.620,384.000 382.400 C 384.000 381.911,384.418 381.897,385.151 382.361 M15.242 383.318 C 14.728 383.832,14.207 383.435,14.588 382.820 C 14.735 382.582,15.039 382.500,15.262 382.639 C 15.536 382.807,15.529 383.031,15.242 383.318 M382.753 384.300 C 382.628 385.090,382.851 385.340,383.200 384.800 C 383.433 384.439,383.590 384.390,383.594 384.676 C 383.604 385.429,382.746 385.759,382.361 385.151 C 381.897 384.418,381.911 384.000,382.400 384.000 C 382.620 384.000,382.779 384.135,382.753 384.300 M14.617 384.772 C 14.344 385.214,14.975 385.692,15.344 385.322 C 15.725 384.942,15.654 384.400,15.224 384.400 C 15.017 384.400,14.744 384.568,14.617 384.772 M17.242 385.318 C 16.728 385.832,16.207 385.435,16.588 384.820 C 16.735 384.582,17.039 384.500,17.262 384.639 C 17.536 384.807,17.529 385.031,17.242 385.318 M381.500 385.433 C 381.119 385.815,380.355 385.197,380.639 384.738 C 380.807 384.464,381.031 384.471,381.318 384.758 C 381.554 384.994,381.636 385.298,381.500 385.433 " stroke="none" fill="#fc5454" fill-rule="evenodd"></path><path id="path1" d="" stroke="none" fill="#1005454" fill-rule="evenodd"></path><path id="path2" d="" stroke="none" fill="#1005454" fill-rule="evenodd"></path><path id="path3" d="" stroke="none" fill="#1005454" fill-rule="evenodd"></path><path id="path4" d="" stroke="none" fill="#1005454" fill-rule="evenodd"></path></g></svg>